<?xml version="1.0" encoding="UTF-8"?>
<!DOCTYPE svg  PUBLIC '-//W3C//DTD SVG 1.1//EN'  'http://www.w3.org/Graphics/SVG/1.1/DTD/svg11.dtd'>
<svg preserveAspectRatio="none" version="1.1" viewBox="0 0 350 300" xmlns="http://www.w3.org/2000/svg" xmlns:xlink="http://www.w3.org/1999/xlink">
<defs>
<circle id="a" cx=".5" cy=".5" r=".4" fill="#d7d7d7" stroke="#000" stroke-width=".05"/>
<circle id="b" cx=".5" cy=".5" r=".4" fill="#e7e700" stroke="#000" stroke-width=".05"/>
<circle id="c" cx=".5" cy=".5" r=".4" fill="#e00" stroke="#000" stroke-width=".05"/>
</defs>
<g transform="scale(50) translate(-1 -1)">
<rect width="8" height="7" fill="#a08c64"/>
<use x="1" y="1" xlink:href="#a"/>
<use x="2" y="1" xlink:href="#a"/>
<use x="3" y="1" xlink:href="#a"/>
<use x="4" y="1" xlink:href="#a"/>
<use x="5" y="1" xlink:href="#a"/>
<use x="6" y="1" xlink:href="#a"/>
<use x="7" y="1" xlink:href="#a"/>
<use x="1" y="2" xlink:href="#a"/>
<use x="2" y="2" xlink:href="#a"/>
<use x="3" y="2" xlink:href="#c"/>
<use x="4" y="2" xlink:href="#b"/>
<use x="5" y="2" xlink:href="#a"/>
<use x="6" y="2" xlink:href="#a"/>
<use x="7" y="2" xlink:href="#a"/>
<use x="1" y="3" xlink:href="#a"/>
<use x="2" y="3" xlink:href="#a"/>
<use x="3" y="3" xlink:href="#b"/>
<use x="4" y="3" xlink:href="#b"/>
<use x="5" y="3" xlink:href="#b"/>
<use x="6" y="3" xlink:href="#c"/>
<use x="7" y="3" xlink:href="#a"/>
<use x="1" y="4" xlink:href="#a"/>
<use x="2" y="4" xlink:href="#a"/>
<use x="3" y="4" xlink:href="#c"/>
<use x="4" y="4" xlink:href="#c"/>
<use x="5" y="4" xlink:href="#b"/>
<use x="6" y="4" xlink:href="#b"/>
<use x="7" y="4" xlink:href="#a"/>
<use x="1" y="5" xlink:href="#a"/>
<use x="2" y="5" xlink:href="#a"/>
<use x="3" y="5" xlink:href="#c"/>
<use x="4" y="5" xlink:href="#b"/>
<use x="5" y="5" xlink:href="#c"/>
<use x="6" y="5" xlink:href="#b"/>
<use x="7" y="5" xlink:href="#a"/>
<use x="1" y="6" xlink:href="#a"/>
<use x="2" y="6" xlink:href="#b"/>
<use x="3" y="6" xlink:href="#c"/>
<use x="4" y="6" xlink:href="#c"/>
<use x="5" y="6" xlink:href="#c"/>
<use x="6" y="6" xlink:href="#b"/>
<use x="7" y="6" xlink:href="#c"/>
</g>
</svg>
