<?xml version="1.0" encoding="UTF-8"?>
<svg version="1.0" viewBox="0 0 522.49 464.27" xmlns="http://www.w3.org/2000/svg" xmlns:cc="http://web.resource.org/cc/" xmlns:dc="http://purl.org/dc/elements/1.1/" xmlns:rdf="http://www.w3.org/1999/02/22-rdf-syntax-ns#">
<metadata>
<rdf:RDF>
<cc:Work rdf:about="">
<dc:format>image/svg+xml</dc:format>
<dc:type rdf:resource="http://purl.org/dc/dcmitype/StillImage"/>
</cc:Work>
</rdf:RDF>
</metadata>
<path d="m177.52 451.2c-2.3099-4.5804-5.2542-20.884-6.8018-37.664-1.5164-16.442-2.0606-30.641-2.4094-62.863-0.29486-27.237-0.79042-47.291-1.1787-47.698-0.07874-0.08248-1.7137-0.24124-3.6333-0.35295s-4.6601-0.29149-6.0901-0.3996-3.86-0.28528-5.4-0.39379c-4.3161-0.30431-16.484-1.1876-19.5-1.4156-2.9815-0.22542-38.534-3.0943-43.3-3.4941-1.65-0.13854-7.815-0.71631-13.7-1.2843s-11.69-1.1201-12.9-1.227c-5.6106-0.49609-13.975-1.3586-14.308-1.4755-0.16036-0.05626-1.2816-0.1976-2.4916-0.31411-3.0153-0.29049-7.9885-0.91452-10.4-1.3053-1.1-0.17818-2.9-0.44965-4-0.6032-5.506-0.76837-9.127-1.6056-10.175-2.3526l-0.58368-0.41602 0.4355-0.35295c0.7774-0.63023 3.2647-0.98458 10.423-1.4855 14.654-1.0252 50.726-1.3417 93.3-0.81862 14.74 0.18118 27.07 0.36917 27.4 0.41742 0.33 0.04844 3.66 0.10931 7.4 0.13533l6.8 0.04705-0.05852-1.5896c-0.10792-2.9311-1.8242-35.196-3.1302-58.847-0.7114-12.883-1.53-28.108-1.819-33.834s-0.55536-10.51-0.59184-10.633c-0.0482-0.16136-9.855-0.22703-35.933-0.24044-41.97-0.02142-44.8-0.05525-70.567-0.84284-9.8134-0.2999-17.959-0.80521-22.8-1.414-6.5805-0.82763-8.972-1.445-10.182-2.6288-0.8277-0.81001-0.76806-1.3802 0.33254-3.1802 1.5137-2.4755 1.5186-3.1738 0.04054-5.7293-0.44346-0.76677-0.85976-1.7239-0.9251-2.1269-0.1083-0.66786-0.04138-0.809 0.7574-1.597 1.4231-1.4036 4.6074-2.3119 11.068-3.157 2.9763-0.38939 4.0088-0.48269 11.809-1.0677 12.068-0.90531 35.565-1.5079 65.494-1.6803l23.894-0.13734-8.563-7.3073c-4.7096-4.019-8.6546-7.3409-8.7667-7.3818-0.11204-0.04104-0.26078 0.01041-0.33056 0.11411-0.2521 0.37497-4.0393 2.6248-6.258 3.7177-5.1278 2.5257-12.55 4.5522-20.669 5.6434-5.314 0.71432-15.165 0.87968-18.4 0.30911-2.3323-0.41141-5.7433-1.3429-7.0302-1.9199-0.34662-0.15536-0.69116-0.28249-0.76562-0.28249s-1.1409-0.5049-2.3698-1.1221c-10.577-5.3113-17.543-16.171-19.237-29.991-0.3685-3.0062-0.41854-9.4384-0.09668-12.43 0.88424-8.2204 3.3438-16.128 7.2128-23.188 0.77494-1.4142 1.3815-2.6492 1.348-2.7444-0.03358-0.09529-1.8684-2.047-4.0774-4.3375-2.209-2.2903-4.504-4.7133-5.1-5.3842-0.596-0.67107-2.0319-2.2476-3.1909-3.5035-1.159-1.256-2.734-3.0032-3.5-3.8827-0.766-0.87928-1.4827-1.7001-1.5927-1.8238-6.3353-7.1249-13.749-17.075-17.737-23.804-2.2662-3.8244-2.7159-4.6416-4.3431-7.8921-3.7643-7.5195-6.0368-14.955-6.0368-19.752 0-3.5994 0.71442-4.1728 3.4404-2.7605 1.8415 0.95395 2.9209 1.0825 3.8112 0.45405 0.36576-0.25806 0.84362-0.6971 1.0619-0.97517 0.21828-0.27828 0.79308-0.93394 1.2774-1.4569 0.78568-0.84865 0.97254-0.95095 1.735-0.95095 0.759 0 0.97618 0.11732 1.9445 1.051 0.72092 0.69509 1.652 2 2.7496 3.8539 4.1145 6.9487 7.0693 11.465 10.561 16.143 3.8045 5.0967 5.0563 6.6406 11.31 13.95 3.2971 3.8536 16.512 17.518 21.376 22.104 2.5433 2.3974 2.5515 2.403 3.0494 2.0765 0.97318-0.63824 4.3221-2.3207 6.049-3.0386 2.8652-1.1916 5.7035-2.0346 8.3514-2.4809 0.55-0.0927 1.45-0.27608 2-0.40761 1.5488-0.37017 9.3428-0.31131 11.8 0.08929 5.6723 0.92432 11.35 3.1019 14.18 5.4388 1.4752 1.218 1.971 2.0056 1.9558 3.1073-0.01296 0.93954-0.22208 1.3448-1.5373 2.9788-1.4247 1.7698-1.6293 2.2346-1.9918 4.5249-0.18734 1.1832-0.5145 2.3736-0.81218 2.9548l-0.49848 0.97338 1.5567 1.6292c6.5525 6.8578 11.611 13.923 15.071 21.049 3.1959 6.5816 5.176 13.932 5.176 19.212v1.4743l4.85 4.1594c2.6675 2.2877 4.895 4.212 4.95 4.2763 0.10334 0.12072 3.9143 3.4186 4.8 4.154 0.275 0.22823 4.1391 3.576 8.587 7.4396 4.4478 3.8635 8.1171 6.9942 8.154 6.9574s-0.02414-2.1297-0.13556-4.651c-0.1114-2.5211-0.38144-9.6288-0.60008-15.795-1.6126-45.481-1.612-69.142 0.00216-78.698 0.85068-5.036 2.0083-6.2733 4.7259-5.0512 1.599 0.71892 2.3368 0.96056 2.9434 0.96377 0.76396 0.0038 2.1012-0.38939 2.7232-0.801 0.8104-0.53634 2.156-0.9978 2.9093-0.9978 1.1175 0 2.2716 1.2989 3.0343 3.4154 3.6873 10.232 6.005 40.729 8.306 109.3l0.05038 1.5015 32.1 0.43704c40.148 0.54695 66.866 0.98318 76.7 1.2526 18.426 0.50471 28.155 0.64745 28.298 0.41522 0.0778-0.12613 0.2023-1.5972 0.2768-3.2691 0.7338-16.48 3.7274-58.448 5.5291-77.514 1.3344-14.122 2.7738-22.62 3.9047-23.054 0.4936-0.18959 0.8684 0.31091 1.2777 1.7061 1.7257 5.8827 3.0996 23.045 4.1049 51.278 0.5051 14.185 1.1058 39.772 1.1076 47.181 5e-4 2.1105 0.0556 3.98 0.1224 4.1542 0.1051 0.27427 0.6731 0.31731 4.25 0.32232 2.2707 0.0032 8.4486 0.13854 13.729 0.3009 5.28 0.16216 13.11 0.38458 17.4 0.49409 4.29 0.10931 13.38 0.38379 20.2 0.60961 24.111 0.7986 32.018 0.94555 31.799 0.59079-0.0684-0.11071-0.6812-0.57938-1.3618-1.0414-0.6807-0.46206-1.3276-0.91551-1.4376-1.008-0.11-0.09229-1.064-0.81741-2.12-1.6112-2.6092-1.9618-5.2584-3.9988-5.38-4.1367-0.055-0.06226-1.45-1.1856-3.1-2.4959s-3.1465-2.5257-3.3255-2.7009c-0.179-0.17497-0.494-0.45806-0.7-0.62903s-2.1745-1.8695-4.3745-3.7748c-2.2-1.9051-4.1072-3.5071-4.2381-3.5598-0.1309-0.05285-2.1109 0.95536-4.4 2.2404-4.4173 2.4797-13.644 7.1067-14.172 7.1067-0.0631 0-0.5815 0.21802-1.1522 0.48469-0.5707 0.26666-1.8026 0.76877-2.7376 1.1157-0.935 0.34695-1.88 0.70851-2.1 0.8034-0.22 0.0951-1.255 0.44044-2.3 0.76777-9.3162 2.9177-18.003 3.1738-20.45 0.603-0.3025-0.31771-0.55-0.7045-0.55-0.85945 0-0.73434 1.7774-2.1357 4.7942-3.7804 4.9238-2.6841 14.238-9.0629 20.256-13.872 0.7425-0.59319 2.0025-1.5966 2.8-2.2294s1.495-1.2018 1.55-1.2643 1.2058-0.9984 2.5575-2.0801c1.3516-1.0815 2.4316-2.034 2.4-2.1167-0.0317-0.08269-1.5341-1.7145-3.3387-3.6262-1.8047-1.9117-4.2882-4.6468-5.519-6.0783-2.577-2.9972-8.2564-10.113-9.9607-12.48-1.4755-2.0494-6.1404-9.0442-6.2967-9.4418-0.065-0.16516-0.4017-0.75075-0.7482-1.3013-0.3466-0.55055-1.313-2.3073-2.1475-3.9039-5.4031-10.337-7.4989-19.847-4.9736-22.57 0.7782-0.83863 1.4403-1.0518 4.2313-1.362 1.9215-0.21341 2.8799-0.42823 4.0103-0.8989 4.8748-2.0292 6.1421-1.9013 8.8853 0.8973 1.7144 1.749 2.63 3.1243 7.8022 11.721 4.7996 7.9772 8.7094 13.936 13.858 21.121 1.8147 2.5325 3.5861 5.01 3.9364 5.5055 0.5175 0.73173 6.2201 8.3638 6.4006 8.566 0.0507 0.05685 5.2157-4.403 5.6031-4.8378 0.11-0.12372 0.83-0.76476 1.6-1.425s1.49-1.2991 1.6-1.4198 1.775-1.5576 3.7-3.1926c1.925-1.6352 3.635-3.1133 3.8-3.2849s0.84-0.76036 1.5-1.3083c0.66-0.54814 1.245-1.05 1.3-1.1153 0.1545-0.18358 6.7917-5.6661 9.7-8.0122 10.029-8.0913 17.862-13.151 22.746-14.694 1.4257-0.45045 2.0211-0.53754 3.2505-0.47528 1.4113 0.07127 1.5491 0.12012 2.2107 0.78238 0.4709 0.47127 1.002 1.424 1.5963 2.8635 0.9514 2.3047 1.1347 2.6088 2.9721 4.9309 1.637 2.0687 1.9861 2.9185 1.8909 4.6042-0.1231 2.1804-1.3834 4.0036-5.6935 8.236-1.3049 1.2815-3.4075 3.2148-4.6725 4.2963s-2.345 2.0232-2.4 2.0927c-0.055 0.06927-1.27 1.0619-2.7 2.2054-1.43 1.1436-2.78 2.231-3 2.4164-0.6206 0.52292-4.4753 3.5792-5.7009 4.5201-0.6045 0.46407-1.3691 1.0845-1.6991 1.3788s-1.455 1.1708-2.5 1.9478c-1.045 0.77677-1.945 1.4705-2 1.5411s-1.27 0.99499-2.7 2.0538c-1.43 1.0591-2.69 2.0008-2.8 2.0931-0.3004 0.25205-4.3281 3.1868-6.6 4.8092-1.1 0.78559-2.0978 1.5127-2.2172 1.6158-0.1195 0.1031-1.4245 1.0134-2.9 2.0226-1.4756 1.0094-2.7104 1.9131-2.744 2.0084-0.0645 0.18259 0.3308 0.72553 2.7746 3.8098 0.8288 1.046 2.3621 3.028 3.4073 4.4044 1.0452 1.3764 2.6218 3.4484 3.5036 4.6046 4.855 6.3656 9.7413 13.411 11.821 17.044l0.9584 1.6743 9.4981 0.14154c5.2239 0.07768 12.018 0.24105 15.098 0.36257 5.8495 0.23103 17.717 1.0468 20.3 1.3954 0.825 0.11131 2.445 0.29369 3.6 0.40521 3.3871 0.32712 12.633 1.9013 15.8 2.6901 2.4082 0.5998 7.1028 1.973 7.95 2.3253 0.2475 0.1031 0.6525 0.26906 0.9 0.36896 3.1503 1.2717 5.35 2.5556 5.35 3.1225 0 0.14715-0.281 0.32933-0.6243 0.40481-0.7578 0.16656-5.0697-0.03043-9.6757-0.44244-2.2895-0.20461-6.9963-0.33774-14.41-0.40721-13.369-0.12533-20.296 0.13253-42.19 1.5718-8.36 0.54935-16.595 1.0811-18.3 1.1814s-4.27 0.28168-5.7 0.4032c-6.5342 0.55536-32.15 1.372-71.7 2.2855-8.085 0.18678-14.82 0.37757-14.967 0.42382-0.2169 0.06847-0.2443 0.91912-0.1461 4.5385 0.0665 2.4498 0.2113 8.9588 0.3219 14.464 0.5255 26.166 1.3456 51.603 2.2947 71.171 0.4497 9.2721 1.1093 21.093 1.191 21.345 0.049 0.15095 1.4946 0.26266 4.4391 0.34294 9.2728 0.25285 53.499 1.8863 54.866 2.0262 0.605 0.06207 4.07 0.1996 7.7 0.30591 3.63 0.1063 8.535 0.28889 10.9 0.4056 6.7804 0.33454 21.7 1.0212 26.2 1.206 2.255 0.09249 5.585 0.26406 7.4 0.38118 1.815 0.11732 5.145 0.3053 7.4 0.41762 2.255 0.11251 5.315 0.29169 6.8 0.39819 1.485 0.10631 4.275 0.2935 6.2 0.41562 10.854 0.68929 16.826 1.1494 23.2 1.7874 10.23 1.0238 14.902 1.63 16.9 2.193 0.33 0.09289 0.96 0.22682 1.4 0.29769s1.5144 0.36277 2.3876 0.64865c3.7158 1.2166 4.0701 2.0132 2.2124 4.9752-1.4023 2.2358-1.419 2.6657-0.2 5.1395 1.0493 2.1295 1.1366 2.9764 0.3938 3.8214-2.9564 3.364-23.049 4.2557-68.394 3.0352-16.687-0.44925-29.55-0.87728-35.5-1.1814-1.155-0.05906-4.755-0.20161-8-0.31692-3.245-0.11512-7.34-0.2987-9.1-0.40761s-5.63-0.28688-8.6-0.39559c-6.7357-0.24625-21.443-0.91031-26.1-1.1786-1.925-0.11091-5.705-0.2963-8.4-0.41221-2.695-0.11592-5.845-0.26006-7-0.32032l-2.1-0.10951 0.5 0.42722c0.275 0.23504 0.95 0.85506 1.5 1.378s6.2997 5.7189 12.777 11.547c6.4774 5.828 11.977 10.777 12.221 10.997 2.2785 2.0534 6.0862 5.4957 7.4617 6.7455l1.6955 1.5405 1.2434-1.056c3.3663-2.8587 8.2708-5.7546 12.401-7.3221 0.66-0.25065 1.3544-0.53393 1.5432-0.62963 0.1888-0.09589 0.6838-0.25966 1.1-0.36396 0.4162-0.10451 1.5668-0.41181 2.5568-0.68308 0.99-0.27107 3.06-0.6919 4.6-0.93514 2.4784-0.39139 3.3283-0.43083 7.4-0.34474 4.0653 0.08608 4.9719 0.16917 7.8 0.71471 3.4394 0.66346 4.0453 0.81381 6.2 1.5391 3.3605 1.1311 6.811 2.7758 8.4803 4.042 1.9683 1.4931 2.6197 2.3542 2.6197 3.4627 0 0.83303-0.2444 1.2617-1.5958 2.7996-0.629 0.71572-1.2929 1.5908-1.4754 1.9448-0.45 0.87287-0.8506 4.7213-0.5034 4.837 0.1373 0.04584 1.7852 0.86706 3.6621 1.825 2.8755 1.4677 4.6603 2.4723 7.2103 4.0585 1.8948 1.1788 7.681 5.7672 9.6598 7.6604 3.7286 3.5672 5.8419 6.3467 8.0497 10.588 6.2885 12.081 4.9885 25.119-3.6482 36.592-0.6375 0.8468-1.1591 1.6174-1.1591 1.7125 0 0.0949 1.5949 1.6993 3.5443 3.5653 7.3151 7.0018 17.523 17.428 20.256 20.687 2.0175 2.407 2.4791 3.5944 1.2604 3.242-1.1678-0.3377-7.0742-4.0074-8.9604-5.5673-0.11-0.0911-0.515-0.3808-0.9-0.6441-0.385-0.2632-1.33-0.9449-2.1-1.5149-0.77-0.5699-2.3-1.7017-3.4-2.5149s-4.9083-3.7151-8.4628-6.4488c-3.5545-2.7336-6.5695-5.0106-6.7-5.0599-0.1305-0.0494-0.5522 0.1862-0.9372 0.5233-0.8902 0.7798-3.9095 3.0561-5.6 4.2221-5.5538 3.83-14.304 7.7379-23.4 10.451-9.0656 2.7035-21.581 4.5299-31.4 4.5824-3.5711 0.019-4.8038-0.0457-5.9716-0.3135-6.5584-1.5039-11.482-4.7736-15.725-10.444-4.297-5.7415-6.6501-11.807-8.0771-20.821-0.7038-4.4458-0.8856-7.6006-0.7662-13.301 0.1496-7.1467 0.7715-11.745 2.5502-18.857 1.643-6.569 5.0798-14.807 8.2156-19.693l0.7709-1.2012-0.8482-0.78398c-0.4665-0.43103-1.7032-1.4643-2.7482-2.2961-1.045-0.83163-2.215-1.7986-2.6-2.149-0.385-0.35015-1.195-1.0242-1.8-1.4981-0.605-0.47367-1.1999-0.95575-1.3219-1.0711-0.7058-0.66746-18.762-15.509-18.808-15.46-0.0441 0.04684 0.3867 4.4238 1.2349 12.548 1.8487 17.706 3.9178 32.86 8.214 60.16 3.5945 22.841 3.7403 23.973 3.7632 29.229 0.0165 3.7902-0.0066 4.0491-0.4339 4.8495-0.5355 1.0032-1.2154 1.2554-2.7358 1.0152-2.6744-0.4228-3.6043-0.423-4.4236-4e-4 -0.4341 0.224-0.9692 0.5754-1.1892 0.7808-0.8146 0.7611-2.2188 1.6336-2.8293 1.7579-0.7899 0.1608-1.954-0.3049-2.6175-1.0472-4.5955-5.1418-10.556-25.27-15.339-51.8-3.8032-21.095-6.8666-47.528-8.4337-72.773l-0.3418-5.5055-0.5857-0.62702c-0.4353-0.46607-0.8256-0.65886-1.5194-0.75055-1.0576-0.13994-15.524-1.0098-22.034-1.3251-5.1124-0.24744-16.568-0.8995-21.2-1.2068-1.815-0.12032-13.605-0.85606-26.2-1.6346-26.782-1.656-27.797-1.7209-49.195-3.1463-6.7621-0.45045-12.31-0.81902-12.329-0.81902-0.03526 0-0.08038 1.0348-0.58468 13.413-0.37094 9.1051-1.0421 21.864-2.1905 41.642-2.1006 36.176-2.4923 45.442-3.0044 71.071-0.1639 8.2032-0.39058 16.041-0.50372 17.417-0.38496 4.6825-1.0334 5.7029-2.1797 3.4297zm229.49-30.949c4.4455-0.4784 5.4974-0.6384 9.8-1.4917 2.2448-0.445 5.144-1.1353 5.9-1.4046 0.275-0.0981 1.31-0.4186 2.3-0.7123s1.98-0.6154 2.2-0.7147c0.22-0.0995 0.85-0.3269 1.4-0.5057 2.5825-0.839 9.2-4.041 9.2-4.4512 0-0.1083-2.43-2.1159-5.4-4.4617-4.591-3.626-6.218-4.9329-9.4-7.5509-0.5704-0.46927-5.4684-4.3782-6.2799-5.0118-0.374-0.29189-0.824-0.67227-1-0.84524-0.1761-0.17297-1.6701-1.3862-3.3201-2.6961-1.65-1.3099-3.045-2.4344-3.1-2.4989-0.055-0.06447-1-0.82923-2.1-1.6993-1.1-0.87027-2.225-1.7928-2.5-2.05-0.275-0.25745-0.995-0.84364-1.6-1.3027s-1.64-1.2901-2.3-1.8466c-0.66-0.55676-1.65-1.3708-2.2-1.8092s-1.18-0.94915-1.4-1.1349c-1.3246-1.1191-6.353-5.1682-6.418-5.1682-0.0429 0-0.4839 0.80901-0.9801 1.7978-2.8916 5.7634-4.7832 12.424-5.7432 20.224-0.3719 3.0216-0.3113 10.133 0.1117 13.113 0.6358 4.4789 1.5494 7.4903 3.0673 10.11 0.7015 1.2108 1.9384 2.5027 2.5623 2.6761 0.22 0.0611 3.145 0.0703 6.5 0.0202 4.6012-0.0686 7.2302-0.2126 10.7-0.5858zm39.507-16.275c2.9317-3.3157 4.6795-7.2212 5.0866-11.366 0.2561-2.6084-0.5103-6.4046-1.932-9.5688-0.8217-1.8286-2.5373-4.6743-3.5372-5.8665-0.2883-0.34395-0.8835-1.0647-1.3225-1.6016-1.9807-2.4228-6.1547-6.4472-9.4796-9.1399-1.6015-1.2971-8.3785-5.9842-10.622-7.3465-1.485-0.9017-2.9439-1.8124-3.2419-2.0236-0.4756-0.33714-0.9053-0.38419-3.5076-0.38419-6.244 0-11.144 1.1516-15.572 3.6599-1.5426 0.87387-3.0047 1.9415-2.8787 2.1021 0.055 0.07027 3.925 3.6424 8.6 7.9381 4.675 4.2959 11.956 11.011 16.18 14.923 4.2241 3.9119 8.2741 7.6512 9 8.3097 0.726 0.65846 2.31 2.1463 3.52 3.3065 4.3661 4.186 8.521 7.9936 8.733 8.0028 0.0731 0.0032 0.5113-0.422 0.9738-0.9449zm-157.32-115.33c-0.1045-0.08869-0.82-0.7003-1.59-1.3594-0.77-0.65905-2.165-1.82-3.1-2.5798-0.935-0.75996-1.745-1.438-1.8-1.5069-0.11634-0.14574-3.2649-2.7936-6.4-5.3824-1.894-1.564-3.2355-2.6945-3.4831-2.9349-0.1193-0.11591-2.6469-2.2222-5.6169-4.6805-2.97-2.4583-5.9733-4.9762-6.6739-5.595-0.70068-0.61902-1.5778-1.3421-1.9492-1.6072l-0.6752-0.48188-1.5413 0.94274c-1.7806 1.0891-6.297 3.389-7.7604 3.9518-0.55 0.21141-1.225 0.48428-1.5 0.60601-1.0839 0.48007-1.3715 0.58518-3.4 1.243-4.9319 1.5996-9.4241 2.3283-14.354 2.3283-4.2935 0-7.3128-0.47727-11.046-1.7457-10.941-3.7177-18.484-12.958-20.311-24.881-0.65362-4.2661-0.33962-10.786 0.71954-14.941 0.72142-2.8298 2.1906-6.7221 3.7052-9.8156 0.81728-1.6693 1.486-3.1229 1.486-3.2302 0-0.1073-0.2025-0.32892-0.45-0.49249-0.2475-0.16356-0.675-0.51691-0.95-0.78498-0.275-0.26827-1.625-1.4238-3-2.5682-2.9334-2.4412-7.6563-6.4468-7.8-6.6152-0.055-0.06466-1.2019-1.032-2.5486-2.1499-1.3467-1.1177-2.7722-2.3279-3.1678-2.6893-0.39554-0.36116-0.86062-0.73694-1.0335-0.83484-0.3431-0.19439-0.35456-1.6038 0.15364 18.897 0.43556 17.571 0.6099 28.832 0.73218 47.297l0.12828 19.369 4.2178 0.00421c2.3198 0.0024 11.508 0.18438 20.418 0.4044 8.91 0.21982 20.295 0.48328 25.3 0.58519 5.005 0.1019 12.34 0.28368 16.3 0.4042 29.041 0.88288 37.258 1.0703 36.99 0.84324zm28.566-6.2953c-0.2416-9.6757-0.1681-50.802 0.1084-60.611 0.3967-14.075 0.975-30.129 1.4136-39.239 0.0822-1.7067 0.0938-3.1708 0.0257-3.2532-0.1174-0.14234-35.611 0.39039-35.757 0.53674-0.03828 0.03824 0.67876 0.91291 1.5934 1.9435 5.0395 5.6785 10.462 13.413 13.131 18.729 3.8785 7.7255 4.8417 15.738 2.707 22.519-1.7303 5.4959-5.704 11.286-11.378 16.579-0.88 0.82102-1.645 1.5403-1.7 1.5986s-0.505 0.43383-1 0.83443-1.125 0.92412-1.4 1.1634c-0.275 0.23904-0.70776 0.61342-0.9617 0.83183-0.56434 0.48549-7.9793 6.167-8.5949 6.5858-0.43154 0.2935-0.36574 0.36677 2.9075 3.2408 1.842 1.6172 3.6641 3.228 4.0491 3.5796 1.2964 1.1834 4.0929 3.6867 5 4.4755 0.8383 0.72893 3.1242 2.7846 5.4906 4.9377 0.55516 0.5051 1.3164 1.1808 1.6916 1.5015s0.91782 0.80841 1.2058 1.0837c0.28792 0.27528 1.2859 1.1666 2.2177 1.9808 0.93182 0.81401 2.1892 1.9411 2.7942 2.5045 0.605 0.56337 1.46 1.3263 1.9 1.6955s1.295 1.1379 1.9 1.7083 2.225 2.0192 3.6 3.2198 2.6442 2.3229 2.8206 2.4939c0.578 0.56056 2.0509 1.8885 3.6765 3.3145 0.8784 0.77057 1.7624 1.6036 1.9645 1.8514 0.2021 0.24765 0.4537 0.45045 0.5591 0.45045 0.1215 0 0.1345-2.2907 0.0355-6.2562zm-83.656-32.189c2.2966-0.24225 7.0002-1.4516 7.0002-1.8002 0-0.13153-0.28894-0.39019-2.0031-1.7938-0.60332-0.4939-1.1419-0.94835-1.1969-1.0096-0.055-0.06146-0.91-0.77938-1.9-1.5956-0.99-0.81641-1.845-1.5383-1.9-1.6046-0.54768-0.65946-11.698-9.7866-11.809-9.6667-0.3291 0.35396-1.2129 3.2002-1.4931 4.8084-0.76182 4.3732 0.12186 8.1413 2.4027 10.246 1.0247 0.94555 3.5416 2.2146 4.4362 2.237 0.3097 0.0076 0.7431 0.09149 0.9631 0.18618 0.55098 0.23684 3.2172 0.23344 5.4998-7e-3zm30.644-13.82c3.517-1.9934 5.2563-3.0745 9.8625-6.1295 7.4934-4.9704 11.83-9.2528 13.244-13.078 0.58594-1.5856 0.91472-4.0566 0.7588-5.7031-0.55086-5.8164-2.4654-10.851-9.9266-26.106l-2.6822-5.4837-9.6002 0.13773c-17.865 0.25626-45.545 0.51051-56.2 0.51612-11.341 0.00581-14.173 0.10871-13.645 0.49509 0.17142 0.12553 0.80008 0.67428 1.397 1.2194 1.3012 1.1884 2.0029 1.8076 3.8453 3.3938 0.76744 0.66066 1.5321 1.3472 1.6992 1.5257 0.16712 0.17838 3.568 3.1836 7.5576 6.6781 7.576 6.6356 7.344 6.4713 8.0462 5.7003 0.14262-0.15655 4.4159-3.2534 4.821-3.4937 0.18558-0.11011 1.8093-1.1301 3.6082-2.2665 4.8106-3.0388 10.036-5.4709 14.871-6.9215 0.99-0.29689 2.07-0.62082 2.4-0.71971 0.74272-0.22243 3.6239-0.7956 5.1-1.0146 0.605-0.08989 1.64-0.26126 2.3-0.38098s3.45-0.3047 6.2-0.41081c10.76-0.41561 19.277 1.0028 20.624 3.4344 0.40244 0.72653 0.32 2.1181-0.22704 3.8328-0.62476 1.9582-0.62192 2.5339 0.0242 4.9079 0.3759 1.3812 0.49608 2.225 0.4302 3.0204-0.08324 1.0048-0.17192 1.1766-0.98956 1.9175-1.4772 1.3387-4.0367 2.188-9.4623 3.1393-1.32 0.23143-2.805 0.49209-3.3 0.57918s-2.115 0.34755-3.6 0.57878c-1.485 0.23143-2.97 0.5027-3.3 0.6034-0.33 0.1005-1.005 0.24184-1.5 0.31432-1.7506 0.25585-5.3302 1.2795-8.3884 2.3986-2.6552 0.97177-8.9509 4.5335-11.733 6.638l-0.57058 0.43164 0.49614 0.47427c0.27286 0.26086 1.1711 1.0577 1.9961 1.7704 0.825 0.71291 1.545 1.3421 1.6 1.3982 0.055 0.05626 0.82 0.72933 1.7 1.4957 0.88 0.76656 2.0981 1.8468 2.7068 2.4008 1.7813 1.6206 2.7979 2.5251 4.3936 3.9095 0.8248 0.71572 1.5446 1.3464 1.5996 1.4014 0.10748 0.10791 1.185 1.0749 3.6815 3.3037 4.7864 4.2731 6.6364 5.8783 6.7899 5.8913 0.09428 0.00801 1.612-0.802 3.3726-1.8zm-174.32-104.49c3.4587-0.26887 7.1177-0.81722 8.679-1.3007 0.495-0.15335 1.3047-0.38318 1.7992-0.51091l0.89924-0.23223-0.79924-0.69169c-0.43956-0.38038-1.5642-1.3367-2.4992-2.1253-0.935-0.78858-2.06-1.7642-2.5-2.168-0.75622-0.69389-1.7325-1.5011-5-4.1339-0.77-0.62042-1.445-1.178-1.5-1.2392s-0.91-0.78078-1.9-1.599c-0.99-0.81841-5.92-5.593-10.956-10.61-7.2354-7.2092-9.1949-9.0594-9.3433-8.822-0.43718 0.6991-2.0243 5.9055-2.5327 8.3083-0.50796 2.4006-0.55118 2.9598-0.557 7.2072-0.00682 4.9894 0.19356 6.3491 1.4073 9.5497 0.8881 2.3419 2.8524 4.977 4.5803 6.1443 1.4746 0.99619 4.216 1.9776 6.1009 2.1842 2.3526 0.25766 11.001 0.28188 14.121 0.03944zm19.173-28.016c-1.9856-5.7099-5.5784-12.8-10.924-21.558l-1.9705-3.228-1.7999 0.07488c-4.6305 0.19279-5.4218 0.26606-7.1999 0.66686-1.045 0.23544-2.0563 0.51392-2.2473 0.61882s-0.43264 0.19079-0.53698 0.19079-0.43816 0.09449-0.74184 0.21001c-0.54732 0.20841-0.48412 0.27848 7.237 8.026 4.284 4.2987 8.4723 8.4158 9.3073 9.1491 2.2707 1.9942 3.6914 3.1994 4.9745 4.2198 2.4976 1.986 4.1103 3.3267 4.1739 3.4701 0.03666 0.08248 0.14612 0.15015 0.24326 0.15015 0.09712 0-0.13484-0.89569-0.51548-1.9904zm105.61 329.61c-0.99-0.1409-2.385-0.3976-3.1-0.5703-1.6106-0.389-5.028-1.6605-6.1-2.2693-0.44-0.2501-1.025-0.5644-1.3-0.6985-1.3038-0.6362-4.5587-3.3179-7-5.7674-8.0773-8.1039-12.205-17.845-12.198-28.789 0.00654-10.94 3.8925-21.478 11.679-31.671 1.6282-2.1317 2.4668-3.0847 5.5198-6.2741 7.7721-8.1189 19.717-15.168 30.4-17.941 0.385-0.0999 1.195-0.31651 1.8-0.48168 0.605-0.16496 1.55-0.35615 2.1-0.42502s1.27-0.20901 1.6-0.31172c0.95872-0.29829 6.9885-0.79239 9.5-0.77857 1.265 7e-3 3.3913 0.12272 4.725 0.25745l2.425 0.24465-0.98552-1.574c-1.6004-2.5564-1.7197-3.3518-0.50108-3.3413 1.1202 0.00941 4.3755 1.6484 6.4365 3.2408 1.3031 1.0066 3.9497 3.2683 4.4892 3.836 0.37908 0.399 0.78408 0.72712 0.9 0.72913 0.308 0.0054 2.7938 1.1774 4.4108 2.0795 2.2573 1.2593 4.5053 2.9734 6.1064 4.6556 2.5125 2.64 2.7494 3.8633 1.0735 5.5409l-0.90996 0.91091 0.52788 0.86206c0.29032 0.47428 0.80448 1.3127 1.1426 1.8633 1.1909 1.9393 3.5167 6.635 4.5117 9.1091 2.7113 6.7411 3.7298 11.792 3.7341 18.518 0.00262 4.0953-0.22752 5.8767-1.1898 9.2092-1.9506 6.7554-5.6636 12.127-11.896 17.21-0.935 0.7626-2.105 1.7183-2.6 2.1237-2.4727 2.0257-9.145 6.4273-13.5 8.9061-3.3898 1.9294-10.556 5.3634-14.4 6.9003-2.4446 0.9774-7.2121 2.5804-9 3.0261-3.3278 0.8294-4.0935 0.9779-7.5714 1.4694-4.0026 0.5654-7.7738 0.6351-10.829 0.2zm11.9-20.997c3.574-0.5409 10.728-2.5771 14.1-4.0136 0.44-0.1875 1.205-0.4788 1.7-0.6474 0.495-0.1688 1.26-0.4679 1.7-0.6649s1.385-0.601 2.1-0.8979c1.3805-0.5729 7.1568-3.3994 8.5-4.1591 2.6091-1.4757 3.4031-1.944 5.3-3.1257 1.155-0.71952 2.19-1.3814 2.3-1.4709s0.965-0.73674 1.9-1.4384c2.7237-2.0436 4.3332-3.9964 5.6011-6.7954 2.7041-5.9698 2.2856-15.058-1.1443-24.849-0.88094-2.5147-0.41314-2.2026-4.3568-2.9067-1.32-0.23563-3.21-0.59459-4.2-0.79779-3.2893-0.67468-5.8659-0.86807-9.9404-0.74595-2.4195 0.07247-4.382 0.23544-5.2596 0.43644-0.77 0.17637-1.895 0.41281-2.5 0.52552-1.2216 0.22723-1.3929 0.27648-4.4437 1.2731-2.9378 0.95975-5.432 2.0673-8.0563 3.5776-1.5993 0.92032-5.7629 3.6326-6.145 4.003-0.14026 0.13593-0.79502 0.66767-1.455 1.1814-1.4496 1.1283-3.7843 3.3628-5.4715 5.2368-4.503 5.0012-7.7291 11.085-8.7451 16.491-0.44396 2.3622-0.30012 6.5584 0.29332 8.5567 0.91386 3.0773 2.79 6.0861 5.5957 8.9742 1.7597 1.8114 2.6179 2.2184 5.5277 2.6222 1.0384 0.1442 5.1211-0.0661 7.1-0.3654zm-191.59-13.32c-0.30066-0.56237-0.25386-2.0747 0.10792-3.4877 0.66006-2.578 2.9038-6.5045 6.0167-10.529 1.6427-2.1237 5.6309-6.376 8.1778-8.7191 1.1968-1.1011 2.3593-2.187 2.5833-2.413 0.224-0.22582 1.4423-1.2683 2.7073-2.3161 1.265-1.048 2.435-2.0382 2.6-2.2006 0.74794-0.73573 11.826-9.1473 12.734-9.6691 0.01882-0.01081-0.50212-0.6048-1.1576-1.3201-3.6925-4.0288-7.2493-9.0957-9.3721-13.351-1.6769-3.3616-2.6518-6.1309-3.3297-9.4592-0.43816-2.1513-0.49856-2.8755-0.41836-5.0166 0.1178-3.1453 0.46186-4.3033 1.6462-5.5405l0.88312-0.92252 3.0572 0.15835c3.6899 0.1914 2.9921 0.19059 6.8572 0.00761 3.0068-0.14234 3.2696-0.12512 4.3521 0.28509 1.6101 0.61021 2.9169 2.0064 4.8479 5.179 2.1686 3.563 5.0971 8.0188 6.4684 9.842 1.8419 2.4486 6.0752 7.4074 6.3238 7.4074 0.04192 0 0.87082-0.46006 1.842-1.0222 0.97116-0.56236 2.8008-1.5718 4.0658-2.2432s2.66-1.4232 3.1-1.6705c1.1928-0.66987 11.202-5.6747 11.349-5.6747 0.11364 0 1.7551-0.74194 4.6507-2.1019 2.3744-1.1151 13.453-5.4825 15-5.9133 0.33-0.0919 1.8763-0.56937 3.4363-1.0611 1.56-0.4917 3.225-0.95856 3.7-1.0372 0.47502-0.07888 1.0076-0.21882 1.1835-0.31111 0.35566-0.18659 4.6913-0.99199 8.0802-1.5009 3.6314-0.54555 8.013-0.12312 9.9337 0.95736 1.5121 0.85085 1.8701 1.9259 1.4421 4.3317-0.38572 2.1688-0.3853 3.9896 0.0015 6.4843 0.56442 3.6402-0.0819 5.3407-2.6746 7.0362-1.8548 1.2128-3.1621 1.8092-8.8073 4.0178-2.1425 0.83824-4.1654 1.6464-4.4954 1.7962-0.33 0.14955-1.995 0.77918-3.7 1.3992-1.705 0.61982-3.28 1.2046-3.5 1.2993-0.22 0.0947-0.985 0.3982-1.7 0.67468-0.715 0.27627-3.73 1.4681-6.7 2.6484-4.9386 1.9626-6.4788 2.5924-7.6 3.1075-0.22 0.1009-0.895 0.37177-1.5 0.6018-2.5132 0.95515-10.607 4.4731-10.556 4.5878 0.03064 0.06827 1.9457 1.8721 4.2557 4.0082 2.31 2.1363 6.5878 6.2773 9.5062 9.2024 6.2475 6.2615 7.587 7.7085 10.112 10.924 4.3356 5.5213 6.286 9.8731 5.1515 11.494-0.3147 0.44965-0.4087 0.46666-1.95 0.35175-1.7196-0.12813-2.467-0.37017-6.1194-1.9816-2.2789-1.0054-13.478-6.6304-13.941-7.0024-0.13248-0.1065-0.53748-0.35015-0.9-0.54154-1.7236-0.90991-9.2827-5.1251-9.4592-5.2745-0.11-0.09329-1.6639-1.0432-3.4531-2.1113-2.9303-1.7493-9.5967-5.9738-9.8469-6.24-0.11792-0.12553-0.93474-0.70551-3.0309-2.1526-0.842-0.58138-1.6643-1.0569-1.8273-1.0569-0.163 0-5.0091 2.3401-10.769 5.2006-8.8967 4.418-11.784 5.9037-17.532 9.0224-0.36254 0.1968-0.76754 0.44204-0.9 0.54495-0.13248 0.1029-0.73586 0.44344-1.3409 0.75675-2.4591 1.2733-14.217 8.4398-14.6 8.8991-0.1577 0.18899-2.0214 1.2589-2.8718 1.6486-1.0273 0.47087-1.8585 0.45786-2.1211-0.03343zm74.617-120.15c-0.44422-0.17798-1.9809-1.3714-2.944-2.2863-2.4911-2.3668-4.8786-4.4506-6.7799-5.9179-0.77-0.59439-1.445-1.1299-1.5-1.1902-0.21048-0.23063-1.8544-1.4717-3.4436-2.5996-0.911-0.64664-1.7725-1.2789-1.9145-1.4052-0.30948-0.27507-16.017-10.609-16.126-10.609-0.04166 0-1.5024-0.96076-3.246-2.1351-1.7436-1.1742-3.7103-2.4979-4.3703-2.9415s-2.0265-1.4198-3.0367-2.1694c-1.0102-0.74934-1.8947-1.3626-1.9656-1.3626-0.1907 0-13.011 5.6805-15.798 6.9996-1.32 0.62482-2.715 1.2651-3.1 1.4226-0.385 0.15755-3.895 1.8763-7.8 3.8196-5.9394 2.9556-9.1945 4.7249-16.551 8.996-0.3581 0.20801-1.8431 1.1764-3.3 2.152-3.0726 2.0574-4.4692 2.8364-5.086 2.8364-0.99436 0-1.3417-1.6372-0.78848-3.7165 0.79146-2.9752 2.9261-6.5337 6.7174-11.198 0.26848-0.33033 2.0227-2.1335 3.8982-4.0068 3.6476-3.6434 7.0668-6.591 12.422-10.708 1.9373-1.4895 8.9121-6.3904 11.676-8.2044l2.5871-1.6977-1.1466-1.2052c-3.681-3.8689-8.2396-10.886-10.147-15.619-1.811-4.4947-2.5615-8.059-2.4531-11.65 0.06504-2.153 0.12512-2.4711 0.67142-3.5568 0.96968-1.9267 1.122-1.9878 5.3646-2.1492 2.2003-0.08368 4.1486-0.26506 4.9354-0.45965 0.715-0.17678 2.0819-0.37318 3.0376-0.43624 2.0257-0.13373 2.8558 0.16076 4.4763 1.5888 0.77476 0.68248 3.8861 5.0524 3.8861 5.4578 0 0.22082 4.543 7.0266 5.6114 8.4062 1.5231 1.9668 5.0205 6.0875 5.7532 6.7784l0.61132 0.57637 1.162-0.66266c0.63912-0.36456 1.522-0.86006 1.962-1.1009 0.44-0.24104 2.33-1.2759 4.2-2.2997 1.87-1.024 4.84-2.614 6.6-3.5333 3.5804-1.8703 23.756-11.965 26.216-13.117 0.87106-0.40781 2.5287-1.1846 3.6837-1.7261s2.82-1.3219 3.7-1.7341c4.1616-1.9502 10.769-4.6178 13-5.2488 5.621-1.5894 7.1426-1.0757 8.6697 2.9277 0.71982 1.8869 1.5516 3.2296 3.0919 4.9908 1.4557 1.6645 1.8389 2.4675 1.8298 3.8344-0.01742 2.6252-2.7391 5.5926-9.2417 10.076-0.90568 0.62442-1.6894 1.1353-1.7415 1.1353s-0.79534 0.43704-1.6515 0.97117c-3.8371 2.3944-6.8418 3.9548-18.792 9.7588-4.2401 2.0593-24.8 11.213-26.019 11.584-0.40636 0.12373 0.19968 0.78859 5.7248 6.2797 6.3956 6.3562 8.6966 8.9105 12.024 13.349 3.865 5.1542 6.1438 9.4086 7.5064 14.014 0.64466 2.1788 0.9063 5.9574 0.5003 7.225-0.47834 1.4935-1.3187 1.972-2.5776 1.4677zm268.68-7.8691c-5.1075-0.81682-8.9865-2.7476-12.3-6.1225-2.5185-2.5652-4.3283-6.0234-5.1372-9.8162-0.5535-2.596-0.4897-7.6691 0.1285-10.21 1.678-6.8977 5.2721-14.116 10.127-20.339 1.9974-2.5604 2.2039-2.7882 5.8821-6.4891 3.7788-3.8024 4.0848-4.0741 7.8031-6.9317 1.8944-1.4557 6.6193-4.6789 6.859-4.6789 0.0533 0 0.6922-0.36196 1.4196-0.8044 1.6589-1.0088 6.5634-3.3974 8.4183-4.0997 2.9742-1.1261 4.7472-1.6669 8.9242-2.7215 1.9328-0.48808 6.1988-1.013 9.0758-1.1169 5.2047-0.18779 9.4455 0.33433 14.654 1.8042 3.7668 1.0631 8.236 3.6184 10.151 5.8044 1.8117 2.0675 1.6827 3.2254-0.6408 5.7512-0.8053 0.87547-1.4642 1.7043-1.4642 1.8418 0 0.13733 0.2719 0.37037 0.6043 0.51771 0.8657 0.38359 2.7262 2.1425 3.2964 3.1163 1.621 2.769 1.8321 6.5473 0.577 10.327-1.3927 4.1946-4.7138 9.6937-8.4567 14.003-2.5497 2.9357-6.4373 6.7504-9.7019 9.5201-0.6489 0.55055-1.2787 1.0939-1.3995 1.2074s-0.8046 0.65185-1.5196 1.1962c-1.4987 1.1409-1.504 1.145-2.3 1.8064-1.0364 0.86106-7.5098 5.1706-9.6 6.391-1.1 0.64224-2.315 1.3656-2.7 1.6074-0.6381 0.4006-6.5826 3.3487-8.5 4.2154-1.2417 0.56136-5.4454 2.0763-7 2.5229-1.5316 0.43984-2.0586 0.56957-4.3 1.0573-0.825 0.17958-1.95 0.42502-2.5 0.54534-1.5227 0.33333-8.5084 0.3966-10.4 0.0941zm10.677-19.965c2.6101-0.43844 5.152-0.9978 6.8231-1.5017 2.0473-0.61702 6.8202-2.2719 7.1-2.4615 0.11-0.07467 0.56-0.25545 1-0.4018 0.44-0.14655 1.295-0.49169 1.9-0.76717 0.605-0.27547 1.775-0.79219 2.6-1.1483 2.4226-1.046 9.1696-4.6504 12.5-6.6781 1.8749-1.1416 6.7494-4.3518 7.3948-4.8699 0.8553-0.68689 1.9484-1.5339 2.412-1.8693 1.6545-1.1968 4.6613-4.051 6.6425-6.3057 2.1391-2.4342 3.2064-4.6915 2.9466-6.2312l-0.1379-0.81682-0.5979 0.72613c-1.1656 1.4154-1.2241 1.4242-8.9619 1.3504l-6.9017-0.06587-3.5479 0.62382c-3.9209 0.68929-5.1544 1.0184-8.6486 2.3067-2.1 0.77437-6.7396 3.1073-9 4.5255-9.1096 5.7153-16.963 14.104-19.664 21.004-0.9179 2.3452-0.9411 2.5602-0.2866 2.6593 1.1903 0.18038 5.1749 0.13153 6.4274-0.07868zm-122.51-102.91c-4.9215-0.69589-16.023-6.019-25.369-12.165-5.6729-3.7301-12.433-8.5714-15.061-10.786l-1.0614-0.89429-1.3386 0.55596c-2.6269 1.0911-13.792 6.4905-16.539 7.9978-6.4683 3.5501-7.6807 3.6843-7.8598 0.86946-0.27278-4.2883 3.5187-10.59 10.579-17.581l2.7291-2.7027-3.6976-3.8038c-3.7116-3.8182-8.2261-9.0428-11.108-12.855-4.7416-6.2729-8.4362-13.444-8.8497-17.177-0.30886-2.7884 0.56436-3.8945 4.2415-5.3728 1.7451-0.7015 3.009-1.386 4.5559-2.4667 2.4456-1.7089 3.2969-2.0679 4.9034-2.0679 2.182 0 4.551 1.6476 7.9154 5.5055 1.4321 1.642 10.171 12.445 11.597 14.336 0.21668 0.28729 1.1042 1.3684 1.9722 2.4024 0.86802 1.034 1.903 2.2803 2.3 2.7694 1.307 1.6106 4.2323 5.0166 4.3086 5.0166 0.04116 0 1.1859-0.71672 2.544-1.5928 5.5164-3.5584 17.625-10.677 22.509-13.233 1.2981-0.67928 3.2151-1.6881 4.2601-2.2416 11.525-6.1053 15.991-7.7229 18.456-6.6857 0.9276 0.39019 2.1055 1.7652 3.2932 3.8442 0.56956 0.9968 1.6464 2.5195 2.3929 3.3836 2.9809 3.4498 3.2634 3.9271 3.2486 5.4889-0.02802 2.957-2.9095 6.2765-9.0912 10.473-3.6767 2.4961-11.72 6.8508-17.7 9.5836-1.375 0.62843-3.4 1.5664-4.5 2.0845-1.1 0.51832-4.025 1.8002-6.5 2.849-2.475 1.0486-4.5707 1.972-4.657 2.0516-0.08638 0.07988 0.72362 1.0935 1.8 2.2524 1.0764 1.159 3.5716 3.8402 5.545 5.958 6.6542 7.1413 11.32 12.421 13.72 15.524 0.596 0.77077 1.1365 1.4464 1.2012 1.5015 0.29598 0.25205 1.4038 2.032 2.0558 3.3033 0.98562 1.9213 1.1016 2.6961 0.50186 3.3532-0.55958 0.61302-1.5452 0.76897-3.2972 0.52132z" fill="#900"/>
</svg>
